<svg width="17" height="16" viewBox="0 0 17 16" fill="none" xmlns="http://www.w3.org/2000/svg"><path d="M16.0622 7.64569C16.0637 7.64569 16.0647 7.64569 16.0662 7.64569C16.1662 7.64569 16.2615 7.60482 16.3292 7.53321C16.398 7.46056 16.432 7.36311 16.4231 7.26461C16.0633 3.4074 12.9304 0.352511 8.97302 0.00112562C8.87269 -0.00655875 8.77164 0.0252267 8.6971 0.0926396C8.62257 0.159703 8.58101 0.254361 8.58208 0.35321C8.64443 5.47939 9.33816 7.57408 16.0622 7.64569ZM16.0622 8.35404C9.33816 8.42565 8.64479 10.5203 8.58244 15.6465C8.58136 15.7454 8.62293 15.84 8.69746 15.9071C8.76411 15.9668 8.85119 16 8.94077 16C8.95152 16 8.96263 15.9997 8.97338 15.9986C12.9308 15.6472 16.0637 12.5927 16.4231 8.73512C16.432 8.63662 16.3983 8.53917 16.3292 8.46652C16.26 8.39386 16.1636 8.35789 16.0622 8.35404ZM7.43685 0.00287211C3.49199 0.364387 0.369139 3.41858 0.0111669 7.26531C0.00220864 7.36381 0.0358918 7.46126 0.10505 7.53391C0.172774 7.60552 0.268448 7.64603 0.368064 7.64603C0.369498 7.64603 0.370931 7.64603 0.372364 7.64603C7.07422 7.57094 7.76616 5.47729 7.82923 0.354607C7.8303 0.255758 7.78838 0.160751 7.71384 0.0936875C7.6386 0.0266238 7.5379 -0.00620942 7.43685 0.00287211ZM0.372006 8.3537C0.260565 8.34147 0.173132 8.39317 0.104691 8.46582C0.0358918 8.53847 0.00185033 8.63592 0.0108086 8.73442C0.368781 12.5812 3.49199 15.6353 7.43685 15.9969C7.44796 15.9979 7.45943 15.9983 7.47054 15.9983C7.56012 15.9983 7.64684 15.9654 7.71349 15.9057C7.78802 15.8386 7.82994 15.7436 7.82887 15.6448C7.7658 10.5224 7.07422 8.42879 0.372006 8.3537Z" fill="#F9FBFD"/></svg>